# xmcd
#
# Track frame offsets:
#	150
#	15115
#	29845
#	43397
#	57175
#	70142
#	90040
#	104310
#	120510
#	134687
#	151862
#	169690
#	185355
#	197705
#	215950
#	229005
#	243332
#	256260
#	275527
#	286767
#	301695
#
# Disc length: 4227
#
# Revision: 1
# Processed by: cddbd v1.5.1PL0 Copyright (c) Steve Scherf et al.
# Submitted via: EasyCDDAExtractor 4.5.0.2
# Normalized: r0:TDELIM( - )
#
DISCID=1e108115
DTITLE=Blandade artister - Absolute Country vol. 2
DYEAR=1995
DGENRE=Country
TTITLE0=Lee Roy Parnell - We all get lucky sometimes
TTITLE1=Carlene Carter - He will be mine
TTITLE2=David Ball - Thinkin' problem
TTITLE3=Patty Loveless - Here I am
TTITLE4=Stacy Dean Campbell - Why you been gone so long
TTITLE5=John Michael Montgomery - I swear
TTITLE6=Fait Hill - Let's go to Vegas
TTITLE7=George Strait - Adalida
TTITLE8=Emmylou Harris - You don't know me
TTITLE9=Alan Jackson - Livin' on love
TTITLE10=The tractors - Baby likes to rock it
TTITLE11=George Ducas - Hello Cruel World
TTITLE12=Lorrie Morgan - What part of no
TTITLE13=Jamie O'Hara - The cold hard truth
TTITLE14=Mary Chapin Carpenter - Tender when I want to be
TTITLE15=Mark Chesnutt - Gona get a life
TTITLE16=Pam Tillis - Mi vida loca (my crazy life)
TTITLE17=Waylon Jennings - Come back and see me
TTITLE18=Emilio - Long as I got you
TTITLE19=The Mavericks - Ain't found nobody
TTITLE20=George Jones and Tammy Wynette - All I have to offer you is me
EXTD=
EXTT0=
EXTT1=
EXTT2=
EXTT3=
EXTT4=
EXTT5=
EXTT6=
EXTT7=
EXTT8=
EXTT9=
EXTT10=
EXTT11=
EXTT12=
EXTT13=
EXTT14=
EXTT15=
EXTT16=
EXTT17=
EXTT18=
EXTT19=
EXTT20=
PLAYORDER=
